<!DOCTYPE svg PUBLIC "-//W3C//DTD SVG 1.1//EN" "http://www.w3.org/Graphics/SVG/1.1/DTD/svg11.dtd">
<!-- Uploaded to: SVG Repo, www.svgrepo.com, Transformed by: SVG Repo Mixer Tools -->
<svg fill="#ffffff" width="800px" height="800px" viewBox="0 0 24 24" xmlns="http://www.w3.org/2000/svg" stroke="#ffffff">
<g id="SVGRepo_bgCarrier" stroke-width="0"/>
<g id="SVGRepo_tracerCarrier" stroke-linecap="round" stroke-linejoin="round"/>
<g id="SVGRepo_iconCarrier">
<path d="M3,23a1,1,0,0,1-1-1V2A1,1,0,0,1,4,2V3H8A1,1,0,0,1,8,5H4v6h8a1,1,0,0,1,0,2H4v6H6a1,1,0,0,1,0,2H4v1A1,1,0,0,1,3,23ZM21,3H13V2a1,1,0,0,0-2,0V4h0V6a1,1,0,0,0,2,0V5h8a1,1,0,0,0,0-2Zm0,8H17V10a1,1,0,0,0-2,0v2h0v2a1,1,0,0,0,2,0V13h4a1,1,0,0,0,0-2Zm0,8H11V18a1,1,0,0,0-2,0v2H9v2a1,1,0,0,0,2,0V21H21a1,1,0,0,0,0-2Z"/>
</g>
</svg>